<svg width="48" height="48" viewBox="0 0 48 48" fill="none" xmlns="http://www.w3.org/2000/svg">
<path fill-rule="evenodd" clip-rule="evenodd" d="M18.8799 7.56592C19.1451 7.56592 19.3995 7.67128 19.587 7.85881C19.7745 8.04635 19.8799 8.3007 19.8799 8.56592V15.1659C19.8799 15.4311 19.7745 15.6855 19.587 15.873C19.3995 16.0606 19.1451 16.1659 18.8799 16.1659C18.6147 16.1659 18.3603 16.0606 18.1728 15.873C17.9852 15.6855 17.8799 15.4311 17.8799 15.1659V8.56592C17.8799 8.3007 17.9852 8.04635 18.1728 7.85881C18.3603 7.67128 18.6147 7.56592 18.8799 7.56592Z" fill="#838383"/>
<path fill-rule="evenodd" clip-rule="evenodd" d="M11.7799 13.9051C12.9099 13.6351 14.0629 13.8401 15.2599 14.4581C16.2349 14.9631 16.9269 15.1941 17.4659 15.3051C18.0039 15.4171 18.4319 15.4191 18.9489 15.4191V17.4191H18.9289C18.4129 17.4191 17.8089 17.4191 17.0609 17.2641C16.3039 17.1071 15.4389 16.8021 14.3409 16.2341C13.4629 15.7811 12.8009 15.7171 12.2449 15.8501C11.6609 15.9901 11.0439 16.3801 10.3329 17.1141C8.70091 18.8021 8.19391 20.5401 8.01691 21.8761C7.91691 23.5201 8.21391 26.7661 9.68491 29.9391C10.1849 31.0191 10.8949 32.5091 11.7609 33.6761C12.1929 34.2581 12.6269 34.7061 13.0439 34.9821C13.4489 35.2491 13.7849 35.3221 14.0899 35.2701C17.2129 34.7321 17.7999 34.7191 18.4089 34.7191H19.4459V36.7191H18.3799C17.9579 36.7191 17.4599 36.7191 14.4299 37.2411C13.4899 37.4031 12.6429 37.1141 11.9419 36.6511C11.2529 36.1961 10.6579 35.5451 10.1549 34.8681C9.14991 33.5151 8.36391 31.8441 7.87091 30.7801C6.23291 27.2481 5.89891 23.6431 6.02291 21.7161L6.02591 21.6841L6.02991 21.6521C6.24191 20.0081 6.87391 17.8131 8.89591 15.7241C9.74091 14.8501 10.6789 14.1681 11.7809 13.9041" fill="#838383"/>
<path fill-rule="evenodd" clip-rule="evenodd" d="M14.64 11.41C16.136 12.841 16.947 14.576 16.947 15.92C16.947 16.1852 17.0524 16.4396 17.2399 16.6271C17.4274 16.8146 17.6818 16.92 17.947 16.92C18.2122 16.92 18.4666 16.8146 18.6541 16.6271C18.8416 16.4396 18.947 16.1852 18.947 15.92C18.947 13.87 17.779 11.645 16.022 9.964C14.244 8.265 11.743 7 8.896 7C8.63078 7 8.37643 7.10536 8.18889 7.29289C8.00135 7.48043 7.896 7.73478 7.896 8C7.896 8.26522 8.00135 8.51957 8.18889 8.70711C8.37643 8.89464 8.63078 9 8.896 9C11.14 9 13.164 9.999 14.639 11.41" fill="#838383"/>
<path fill-rule="evenodd" clip-rule="evenodd" d="M8.57393 7.00916C8.83702 6.97635 9.10236 7.04935 9.31163 7.21212C9.5209 7.37488 9.65698 7.61409 9.68993 7.87716C10.1819 11.8072 13.6349 13.8772 16.4239 14.9922C16.6702 15.0907 16.8672 15.283 16.9717 15.5268C17.0761 15.7706 17.0795 16.0459 16.9809 16.2922C16.8824 16.5384 16.6901 16.7354 16.4463 16.8399C16.2025 16.9444 15.9272 16.9477 15.6809 16.8492C12.8119 15.7022 8.34593 13.2452 7.70593 8.12516C7.67312 7.86207 7.74613 7.59673 7.90889 7.38746C8.07166 7.17819 8.31087 7.04211 8.57393 7.00916ZM25.7619 13.9032C24.6099 13.6392 23.4279 13.8372 22.1919 14.4512C21.1719 14.9572 20.4449 15.1912 19.8749 15.3042C19.3049 15.4172 18.8529 15.4192 18.3149 15.4192C18.0497 15.4192 17.7954 15.5245 17.6078 15.712C17.4203 15.8996 17.3149 16.1539 17.3149 16.4192C17.3149 16.6844 17.4203 16.9387 17.6078 17.1263C17.7954 17.3138 18.0497 17.4192 18.3149 17.4192H18.3339C18.8709 17.4192 19.4939 17.4192 20.2639 17.2662C21.0449 17.1112 21.9399 16.8082 23.0799 16.2422C24.0039 15.7842 24.7119 15.7142 25.3159 15.8522C25.9419 15.9962 26.5929 16.3942 27.3329 17.1292C29.0489 18.8322 29.5679 20.5812 29.7469 21.9132C29.7858 22.1729 29.9253 22.4068 30.1352 22.5646C30.3451 22.7223 30.6087 22.7912 30.8689 22.7562C31.1292 22.7213 31.3653 22.5854 31.5262 22.3779C31.6871 22.1704 31.7599 21.9079 31.7289 21.6472C31.5069 19.9942 30.8449 17.7972 28.7419 15.7092C27.8609 14.8352 26.8919 14.1612 25.7619 13.9032ZM26.7069 34.2802C26.6123 34.1891 26.5007 34.1175 26.3784 34.0696C26.2562 34.0217 26.1256 33.9983 25.9943 34.0008C25.863 34.0033 25.7335 34.0316 25.6132 34.0842C25.4928 34.1368 25.384 34.2125 25.2929 34.3072C24.5359 35.0932 23.8999 35.3572 23.3619 35.2692C20.1099 34.7312 19.5019 34.7192 18.8769 34.7192C18.6117 34.7192 18.3574 34.8245 18.1698 35.0121C17.9823 35.1996 17.8769 35.4539 17.8769 35.7192C17.8769 35.9844 17.9823 36.2387 18.1698 36.4263C18.3574 36.6138 18.6117 36.7192 18.8769 36.7192H18.9049C19.3519 36.7192 19.8719 36.7192 23.0349 37.2422C24.5569 37.4942 25.8199 36.6422 26.7339 35.6942C26.8252 35.5995 26.8968 35.4878 26.9449 35.3655C26.9929 35.2431 27.0163 35.1125 27.0138 34.9811C27.0113 34.8496 26.9829 34.72 26.9302 34.5996C26.8776 34.4791 26.8017 34.3712 26.7069 34.2802Z" fill="#838383"/>
<path fill-rule="evenodd" clip-rule="evenodd" d="M32.6499 16.1032C31.6469 17.9132 31.3869 19.8122 31.7859 21.0952C31.8249 21.2206 31.8388 21.3525 31.8269 21.4833C31.8149 21.6141 31.7773 21.7412 31.7162 21.8575C31.6551 21.9738 31.5717 22.0769 31.4707 22.1609C31.3698 22.2449 31.2533 22.3082 31.1279 22.3472C31.0025 22.3862 30.8706 22.4002 30.7398 22.3882C30.609 22.3762 30.4819 22.3386 30.3656 22.2775C30.2494 22.2164 30.1463 22.133 30.0622 22.0321C29.9782 21.9311 29.9149 21.8146 29.8759 21.6892C29.2669 19.7302 29.7229 17.2592 30.9009 15.1332C32.0939 12.9812 34.1069 11.0322 36.8259 10.1862C36.9513 10.1472 37.0832 10.1333 37.214 10.1453C37.3448 10.1572 37.4719 10.1948 37.5882 10.2559C37.7044 10.317 37.8075 10.4004 37.8915 10.5014C37.9756 10.6023 38.0389 10.7188 38.0779 10.8442C38.1169 10.9696 38.1308 11.1015 38.1189 11.2323C38.1069 11.3631 38.0693 11.4902 38.0082 11.6065C37.9471 11.7228 37.8637 11.8259 37.7627 11.9099C37.6618 11.9939 37.5453 12.0572 37.4199 12.0962C35.2769 12.7622 33.6399 14.3182 32.6499 16.1032Z" fill="#838383"/>
<path fill-rule="evenodd" clip-rule="evenodd" d="M34.7189 17.3792C33.5509 19.0892 31.9709 20.1722 30.6459 20.3922C30.5147 20.4117 30.3887 20.4572 30.2752 20.5259C30.1618 20.5946 30.0631 20.6852 29.985 20.7925C29.9069 20.8997 29.8509 21.0214 29.8203 21.1504C29.7897 21.2795 29.7851 21.4134 29.8067 21.5442C29.8283 21.6751 29.8758 21.8004 29.9463 21.9127C30.0168 22.0251 30.1089 22.1223 30.2174 22.1987C30.3258 22.2751 30.4484 22.3292 30.5779 22.3577C30.7075 22.3863 30.8414 22.3888 30.9719 22.3652C32.9949 22.0302 34.9989 20.5142 36.3699 18.5072C37.7579 16.4752 38.5969 13.8012 38.1319 10.9922C38.1105 10.8625 38.0638 10.7384 37.9944 10.6269C37.925 10.5153 37.8343 10.4185 37.7276 10.342C37.6208 10.2655 37.5 10.2107 37.372 10.1809C37.2441 10.1511 37.1115 10.1467 36.9819 10.1682C36.8523 10.1896 36.7282 10.2363 36.6166 10.3057C36.505 10.375 36.4082 10.4657 36.3317 10.5725C36.2552 10.6793 36.2005 10.8001 36.1706 10.928C36.1408 11.056 36.1365 11.1885 36.1579 11.3182C36.5249 13.5322 35.8699 15.6932 34.7179 17.3782" fill="#838383"/>
<path fill-rule="evenodd" clip-rule="evenodd" d="M31.7799 23C31.1169 23 30.481 23.2634 30.0121 23.7322C29.5433 24.2011 29.2799 24.837 29.2799 25.5C29.2799 26.163 29.5433 26.7989 30.0121 27.2678C30.481 27.7366 31.1169 28 31.7799 28C32.4429 28 33.0788 27.7366 33.5477 27.2678C34.0165 26.7989 34.2799 26.163 34.2799 25.5C34.2799 24.837 34.0165 24.2011 33.5477 23.7322C33.0788 23.2634 32.4429 23 31.7799 23ZM27.2799 25.5C27.2799 24.9091 27.3963 24.3239 27.6224 23.7779C27.8486 23.232 28.1801 22.7359 28.5979 22.318C29.0158 21.9002 29.5119 21.5687 30.0578 21.3425C30.6038 21.1164 31.189 21 31.7799 21C32.3709 21 32.956 21.1164 33.502 21.3425C34.0479 21.5687 34.544 21.9002 34.9619 22.318C35.3797 22.7359 35.7112 23.232 35.9374 23.7779C36.1635 24.3239 36.2799 24.9091 36.2799 25.5C36.2799 26.6935 35.8058 27.8381 34.9619 28.682C34.118 29.5259 32.9734 30 31.7799 30C30.5864 30 29.4418 29.5259 28.5979 28.682C27.754 27.8381 27.2799 26.6935 27.2799 25.5Z" fill="#838383"/>
<path fill-rule="evenodd" clip-rule="evenodd" d="M37.8449 18.0901C38.9682 18.4931 39.8854 19.3258 40.3948 20.4051C40.9041 21.4844 40.9639 22.7217 40.5609 23.8451C40.5166 23.9687 40.4484 24.0824 40.3601 24.1797C40.2719 24.2769 40.1653 24.3559 40.0465 24.412C39.9278 24.468 39.7991 24.5002 39.6679 24.5066C39.5367 24.5129 39.4056 24.4934 39.2819 24.4491C39.1583 24.4047 39.0446 24.3365 38.9473 24.2482C38.8501 24.16 38.7711 24.0534 38.7151 23.9347C38.659 23.8159 38.6268 23.6872 38.6204 23.556C38.6141 23.4249 38.6336 23.2937 38.6779 23.1701C38.902 22.546 38.8691 21.8585 38.5863 21.2587C38.3035 20.659 37.794 20.1962 37.1699 19.9721C36.5459 19.748 35.8584 19.7809 35.2586 20.0637C34.6589 20.3465 34.196 20.856 33.9719 21.4801C33.93 21.6067 33.8632 21.7237 33.7754 21.8241C33.6876 21.9245 33.5805 22.0064 33.4606 22.0648C33.3407 22.1233 33.2103 22.1571 33.0771 22.1644C32.9439 22.1716 32.8106 22.1522 32.685 22.1072C32.5594 22.0621 32.4441 21.9924 32.3459 21.9021C32.2477 21.8119 32.1685 21.7028 32.1131 21.5815C32.0576 21.4602 32.027 21.329 32.023 21.1956C32.0191 21.0623 32.0418 20.9295 32.0899 20.8051C32.4932 19.682 33.326 18.765 34.4052 18.2558C35.4845 17.7467 36.7217 17.6871 37.8449 18.0901Z" fill="#838383"/>
<path fill-rule="evenodd" clip-rule="evenodd" d="M36.2529 23.1759C37.2767 22.8823 38.3714 22.9612 39.3425 23.3986C40.3135 23.836 41.0981 24.6036 41.5565 25.5649C42.015 26.5263 42.1177 27.619 41.8464 28.6489C41.5752 29.6788 40.9475 30.5792 40.0749 31.1899C39.8573 31.3352 39.5914 31.3894 39.3342 31.3409C39.0771 31.2924 38.8492 31.145 38.6995 30.9304C38.5498 30.7157 38.4901 30.451 38.5334 30.1929C38.5767 29.9348 38.7194 29.704 38.9309 29.5499C39.2061 29.3575 39.4397 29.1115 39.6178 28.8268C39.7958 28.5421 39.9147 28.2244 39.9673 27.8928C40.0199 27.5611 40.0051 27.2222 39.9239 26.8964C39.8426 26.5705 39.6966 26.2644 39.4944 25.9963C39.2923 25.7281 39.0382 25.5034 38.7473 25.3356C38.4564 25.1679 38.1347 25.0604 37.8013 25.0197C37.468 24.9789 37.1299 25.0058 36.8071 25.0986C36.4844 25.1914 36.1837 25.3483 35.9229 25.5599C35.821 25.6428 35.7038 25.7048 35.5779 25.7423C35.4521 25.7799 35.32 25.7923 35.1894 25.7788C35.0587 25.7654 34.932 25.7263 34.8165 25.6639C34.7009 25.6014 34.5988 25.5168 34.5159 25.4149C34.433 25.313 34.3711 25.1958 34.3335 25.0699C34.2959 24.9441 34.2835 24.812 34.297 24.6814C34.3105 24.5507 34.3495 24.424 34.412 24.3085C34.4744 24.1929 34.559 24.0908 34.6609 24.0079C35.1303 23.6264 35.6717 23.3434 36.2529 23.1759ZM27.7799 28.9999C27.1169 28.9999 26.481 29.2633 26.0121 29.7322C25.5433 30.201 25.2799 30.8369 25.2799 31.4999C25.2799 32.163 25.5433 32.7989 26.0121 33.2677C26.481 33.7365 27.1169 33.9999 27.7799 33.9999C28.4429 33.9999 29.0788 33.7365 29.5477 33.2677C30.0165 32.7989 30.2799 32.163 30.2799 31.4999C30.2799 30.8369 30.0165 30.201 29.5477 29.7322C29.0788 29.2633 28.4429 28.9999 27.7799 28.9999ZM23.2799 31.4999C23.2799 30.3065 23.754 29.1619 24.5979 28.3179C25.4418 27.474 26.5864 26.9999 27.7799 26.9999C28.9734 26.9999 30.118 27.474 30.9619 28.3179C31.8058 29.1619 32.2799 30.3065 32.2799 31.4999C32.2799 32.6934 31.8058 33.838 30.9619 34.6819C30.118 35.5258 28.9734 35.9999 27.7799 35.9999C26.5864 35.9999 25.4418 35.5258 24.5979 34.6819C23.754 33.838 23.2799 32.6934 23.2799 31.4999Z" fill="#838383"/>
<path fill-rule="evenodd" clip-rule="evenodd" d="M35.7799 29C35.1169 29 34.481 29.2634 34.0121 29.7322C33.5433 30.2011 33.2799 30.837 33.2799 31.5C33.2799 32.163 33.5433 32.7989 34.0121 33.2678C34.481 33.7366 35.1169 34 35.7799 34C36.4429 34 37.0788 33.7366 37.5477 33.2678C38.0165 32.7989 38.2799 32.163 38.2799 31.5C38.2799 30.837 38.0165 30.2011 37.5477 29.7322C37.0788 29.2634 36.4429 29 35.7799 29ZM31.2799 31.5C31.2799 30.3065 31.754 29.1619 32.5979 28.318C33.4418 27.4741 34.5864 27 35.7799 27C36.9734 27 38.118 27.4741 38.9619 28.318C39.8058 29.1619 40.2799 30.3065 40.2799 31.5C40.2799 32.6935 39.8058 33.8381 38.9619 34.682C38.118 35.5259 36.9734 36 35.7799 36C34.5864 36 33.4418 35.5259 32.5979 34.682C31.754 33.8381 31.2799 32.6935 31.2799 31.5Z" fill="#838383"/>
<path fill-rule="evenodd" clip-rule="evenodd" d="M31.7799 35C31.1169 35 30.481 35.2634 30.0121 35.7322C29.5433 36.2011 29.2799 36.837 29.2799 37.5C29.2799 38.163 29.5433 38.7989 30.0121 39.2678C30.481 39.7366 31.1169 40 31.7799 40C32.4429 40 33.0788 39.7366 33.5477 39.2678C34.0165 38.7989 34.2799 38.163 34.2799 37.5C34.2799 36.837 34.0165 36.2011 33.5477 35.7322C33.0788 35.2634 32.4429 35 31.7799 35ZM27.2799 37.5C27.2799 36.9091 27.3963 36.3239 27.6224 35.7779C27.8486 35.232 28.1801 34.7359 28.5979 34.318C29.0158 33.9002 29.5119 33.5687 30.0578 33.3425C30.6038 33.1164 31.189 33 31.7799 33C32.3709 33 32.956 33.1164 33.502 33.3425C34.0479 33.5687 34.544 33.9002 34.9619 34.318C35.3797 34.7359 35.7112 35.232 35.9374 35.7779C36.1635 36.3239 36.2799 36.9091 36.2799 37.5C36.2799 38.6935 35.8058 39.8381 34.9619 40.682C34.118 41.5259 32.9734 42 31.7799 42C30.5864 42 29.4418 41.5259 28.5979 40.682C27.754 39.8381 27.2799 38.6935 27.2799 37.5Z" fill="#838383"/>
<path fill-rule="evenodd" clip-rule="evenodd" d="M37.8339 33.9659C37.878 33.8422 37.9461 33.7284 38.0342 33.631C38.1223 33.5336 38.2287 33.4545 38.3474 33.3982C38.4661 33.3419 38.5947 33.3096 38.7259 33.303C38.857 33.2964 38.9882 33.3158 39.1119 33.3599C39.7463 33.5864 40.3218 33.9525 40.7958 34.4311C41.2699 34.9097 41.6304 35.4886 41.8509 36.1251C42.0714 36.7617 42.1461 37.4396 42.0696 38.1089C41.9931 38.7781 41.7673 39.4217 41.4089 39.9921C41.0505 40.5624 40.5687 41.0451 39.9988 41.4044C39.429 41.7636 38.7858 41.9904 38.1167 42.068C37.4475 42.1455 36.7695 42.0718 36.1326 41.8523C35.4957 41.6329 34.9163 41.2732 34.4369 40.7999C34.341 40.7082 34.2643 40.5984 34.2113 40.4768C34.1583 40.3551 34.13 40.2242 34.128 40.0915C34.1261 39.9588 34.1506 39.8271 34.2001 39.704C34.2496 39.5809 34.3231 39.4689 34.4163 39.3745C34.5096 39.2801 34.6206 39.2051 34.7431 39.1541C34.8656 39.103 34.997 39.0768 35.1297 39.0771C35.2623 39.0773 35.3936 39.1039 35.5159 39.1554C35.6382 39.2069 35.749 39.2822 35.8419 39.3769C36.1082 39.6399 36.4301 39.8397 36.7839 39.9616C37.1377 40.0836 37.5143 40.1245 37.886 40.0815C38.2578 40.0385 38.6151 39.9125 38.9317 39.713C39.2482 39.5134 39.516 39.2454 39.7151 38.9286C39.9143 38.6117 40.0398 38.2543 40.0823 37.8825C40.1249 37.5107 40.0835 37.1341 39.9611 36.7805C39.8387 36.4268 39.6385 36.1052 39.3752 35.8392C39.1119 35.5733 38.7923 35.3699 38.4399 35.2439C38.3161 35.1998 38.2022 35.1317 38.1047 35.0436C38.0072 34.9554 37.928 34.8489 37.8718 34.7301C37.8155 34.6113 37.7832 34.4826 37.7767 34.3513C37.7702 34.22 37.7896 34.0897 37.8339 33.9659Z" fill="#838383"/>
</svg>
