<svg width="48" height="48" viewBox="0 0 48 48" fill="none" xmlns="http://www.w3.org/2000/svg">
<path d="M14.1139 12.386C14.2317 12.3277 14.3597 12.2932 14.4908 12.2845C14.6218 12.2757 14.7533 12.2928 14.8778 12.3349C15.0022 12.377 15.1171 12.4431 15.216 12.5296C15.3149 12.6161 15.3957 12.7212 15.4539 12.839L16.2449 14.443L17.8579 12.713C18.0387 12.519 18.2891 12.4048 18.5541 12.3955C18.819 12.3861 19.0769 12.4823 19.2709 12.663C19.6739 13.041 19.6959 13.674 19.3199 14.078L17.1919 16.361L17.9949 17.987L19.3259 16.774C19.4231 16.6856 19.5367 16.6172 19.6603 16.5727C19.7839 16.5282 19.9151 16.5085 20.0463 16.5147C20.1775 16.521 20.3062 16.553 20.4251 16.609C20.5439 16.6649 20.6506 16.7438 20.7389 16.841C20.8276 16.9382 20.8963 17.052 20.941 17.1758C20.9856 17.2996 21.0054 17.4309 20.9992 17.5624C20.993 17.6939 20.9608 17.8228 20.9047 17.9418C20.8485 18.0608 20.7694 18.1676 20.6719 18.256L18.9169 19.854L19.9729 21.993C20.0907 22.2308 20.1092 22.5056 20.0243 22.757C19.9394 23.0084 19.7582 23.2157 19.5204 23.3335C19.2827 23.4513 19.0079 23.4697 18.7565 23.3849C18.5051 23.3 18.2977 23.1188 18.1799 22.881L17.0849 20.662L15.1209 21.06C14.8606 21.1126 14.5901 21.0597 14.3688 20.9129C14.1475 20.766 13.9936 20.5373 13.9409 20.277C13.8883 20.0167 13.9412 19.7461 14.088 19.5248C14.2349 19.3035 14.4636 19.1496 14.7239 19.097L16.1679 18.805L15.3729 17.195L12.3329 17.653C12.0704 17.6924 11.8029 17.6259 11.5894 17.468C11.3759 17.3102 11.2338 17.0741 11.1944 16.8115C11.155 16.5489 11.2216 16.2815 11.3794 16.068C11.5372 15.8545 11.7734 15.7124 12.0359 15.673L14.4419 15.31L13.6609 13.727C13.6025 13.6092 13.5679 13.4811 13.559 13.3499C13.5502 13.2187 13.5673 13.0871 13.6094 12.9626C13.6514 12.838 13.7177 12.723 13.8042 12.624C13.8908 12.5251 13.9961 12.4442 14.1139 12.386ZM36.7139 21.249C36.8446 21.2354 36.9767 21.2477 37.1026 21.2852C37.2285 21.3227 37.3458 21.3847 37.4478 21.4675C37.5497 21.5503 37.6344 21.6524 37.6969 21.768C37.7593 21.8836 37.7984 22.0103 37.8119 22.141C38.0119 24.048 37.1719 25.851 35.5849 26.925C35.3648 27.0615 35.1003 27.1073 34.847 27.053C34.5937 26.9987 34.3713 26.8485 34.2265 26.6337C34.0816 26.419 34.0255 26.1565 34.0699 25.9013C34.1144 25.6461 34.256 25.4181 34.4649 25.265C34.938 24.9513 35.3152 24.5129 35.5548 23.9984C35.7945 23.4838 35.8873 22.913 35.8229 22.349C35.8091 22.2182 35.8211 22.086 35.8584 21.96C35.8957 21.8339 35.9575 21.7164 36.0403 21.6142C36.1231 21.512 36.2252 21.4272 36.3407 21.3645C36.4563 21.3019 36.5832 21.2626 36.7139 21.249Z" fill="#838383"/>
<path fill-rule="evenodd" clip-rule="evenodd" d="M10.1089 41.9991C13.0729 41.8491 14.9239 41.0251 16.0739 39.8071C16.4759 40.3811 17.1739 40.7171 17.9309 40.5991C21.9049 39.9791 30.761 38.3471 40.714 34.9051C41.0879 34.7867 41.4145 34.5523 41.6463 34.2359C41.8781 33.9194 42.0031 33.5373 42.0031 33.1451C42.0031 32.7528 41.8781 32.3707 41.6463 32.0543C41.4145 31.7378 41.0879 31.5034 40.714 31.3851C39.5853 30.9957 38.4729 30.6287 37.3769 30.2841C39.3619 29.2371 40.8849 27.4801 41.4809 25.2501C42.826 20.2251 39.2959 15.8531 34.7149 17.2441C34.3919 14.9381 35.1399 12.8141 37.1029 11.6791L36.1029 9.94506C33.6749 11.3481 32.6549 13.7491 32.6459 16.2081C30.9249 14.8911 28.8389 14.8411 27.0659 15.7681C27.0584 15.4711 27.0162 15.1761 26.9399 14.8891C26.6349 13.7481 25.82 12.9331 24.6999 12.4641C24.4699 11.4081 23.9399 10.1261 22.9389 9.17006C21.7789 8.06406 20.1129 7.51406 17.9419 8.04806C17.4082 7.31833 16.6914 6.74229 15.8639 6.37806C14.5289 5.80306 12.8519 5.81506 10.9599 6.90406C8.98295 7.82906 8.02995 9.19006 7.76695 10.6171C7.58895 11.5871 7.74395 12.5071 7.99895 13.2331C6.32095 14.7041 5.81595 16.3841 6.05695 17.9671C6.26595 19.3361 7.01195 20.5061 7.74395 21.3001C7.48595 22.4871 7.68695 23.6211 8.44595 24.5261C8.64195 24.7587 8.86528 24.9664 9.11595 25.1491C9.11146 25.1896 9.10946 25.2303 9.10995 25.2711C9.13295 27.1291 9.23895 28.5981 9.61995 29.7401C8.39195 30.2091 7.23395 31.1621 6.17795 32.6001C6.06156 32.7581 5.99878 32.9493 5.99878 33.1456C5.99878 33.3419 6.06156 33.533 6.17795 33.6911C7.22495 35.1171 8.37295 36.0671 9.58995 36.5391C9.26595 37.6471 9.13995 39.1051 9.11095 41.0171C9.10784 41.1482 9.13165 41.2787 9.18091 41.4003C9.23017 41.5219 9.30384 41.6321 9.39736 41.7241C9.49089 41.8161 9.60228 41.888 9.72467 41.9353C9.84706 41.9826 9.97785 42.0043 10.1089 41.9991ZM17.9199 33.1451C17.9199 34.1751 17.8799 35.2051 17.7159 36.1801V38.6061C18.6859 38.4531 19.9429 38.2411 21.4299 37.9571V34.2551H23.4299V37.5601C26.8345 36.8565 30.2112 36.0246 33.5529 35.0661V33.1461H35.5529V34.4761C36.896 34.0661 38.2729 33.6241 39.673 33.1461C37.7545 32.4899 35.8206 31.8797 33.8729 31.3161L33.7629 31.3261L30.4699 30.3781C29.9513 30.2427 29.4413 30.1127 28.9399 29.9881V34.2551H26.9399V29.5041C23.8884 28.7855 20.8117 28.1784 17.7159 27.6841V30.1101C17.8789 31.0851 17.9199 32.1151 17.9199 33.1451ZM15.7159 36.0051V30.2851C15.5759 29.5251 15.3509 28.8821 15.0069 28.3521C14.4819 27.5431 13.4709 26.7021 11.1389 26.3921C11.1899 27.6151 11.3049 28.4721 11.5159 29.1051L12.1239 30.9271L10.3319 31.6111C9.70895 31.8491 9.01895 32.3231 8.30095 33.1451C9.01095 33.9591 9.69595 34.4321 10.3129 34.6721L12.0259 35.3381L11.5089 37.1031C11.3189 37.7521 11.2009 38.6411 11.1439 39.8971C13.4729 39.5871 14.4819 38.7471 15.0069 37.9391C15.3509 37.4091 15.5759 36.7661 15.7169 36.0061M16.6639 25.9361C15.5189 25.0481 14.1529 24.3561 12.4829 24.2111C11.1289 24.0931 10.3499 23.6811 9.97795 23.2381C9.64795 22.8451 9.49295 22.2511 9.81095 21.3311L10.0289 20.7011L9.53295 20.2571C8.89795 19.6891 8.19495 18.7141 8.03495 17.6661C7.89295 16.7301 8.15195 15.5501 9.80995 14.3491L10.5249 13.8321L10.1009 13.0571C9.83095 12.5641 9.59095 11.7671 9.73495 10.9811C9.86695 10.2651 10.3459 9.39306 11.8409 8.70306L11.8849 8.68306L11.9259 8.65906C13.3499 7.82906 14.3759 7.91706 15.0759 8.21906C15.8339 8.54406 16.3629 9.18906 16.5999 9.66906L16.9909 10.4591L17.8229 10.1721C19.7579 9.50206 20.8739 9.96606 21.5599 10.6211C22.3269 11.3531 22.7219 12.4891 22.8239 13.3341L22.9029 13.9941L23.5429 14.1771C24.4789 14.4441 24.8769 14.9121 25.0099 15.4081C25.1599 15.9671 25.0499 16.8411 24.3699 18.0161C23.8583 18.9063 23.5375 19.8932 23.4279 20.9141C23.1109 22.4871 23.2979 24.0721 23.8909 25.5161C23.9789 25.8711 24.0709 26.2141 24.1579 26.5401L24.1929 26.6681C24.2103 26.7307 24.2253 26.7927 24.2379 26.8541C21.5859 26.2981 19.4179 25.9241 17.9329 25.6921C17.4941 25.6224 17.0457 25.7087 16.6639 25.9361ZM34.0539 29.2861C32.0567 28.7137 30.0469 28.1863 28.0259 27.7041C27.0525 26.967 26.2844 25.9926 25.7949 24.8741C25.4949 23.6281 25.2879 22.4131 25.3999 21.2491C25.4199 21.1511 25.4433 21.0531 25.4699 20.9551C26.0229 18.8891 27.3629 17.6621 28.6399 17.2781C29.8279 16.9211 31.2049 17.2051 32.3199 18.7221L33.2669 20.0121L34.733 19.3701C36.4559 18.6141 37.7889 19.0571 38.6399 19.9611C39.555 20.9341 40.1019 22.6661 39.5499 24.7331C38.9129 27.1111 36.7489 28.9031 34.0539 29.2861Z" fill="#838383"/>
</svg>
