<svg width="48" height="48" viewBox="0 0 48 48" fill="none" xmlns="http://www.w3.org/2000/svg">
<path d="M20.652 30.7647C20.5643 30.7878 20.4821 30.8281 20.4099 30.8831C20.3378 30.9381 20.2772 31.0068 20.2317 31.0852C20.1861 31.1636 20.1565 31.2503 20.1444 31.3402C20.1324 31.4301 20.1382 31.5215 20.1615 31.6092C20.3484 32.2866 20.3066 33.0068 20.0428 33.6582C19.7789 34.3095 19.3077 34.8557 18.702 35.2122C18.5721 35.2871 18.4716 35.404 18.417 35.5437C18.3643 35.6778 18.3546 35.825 18.3893 35.9649C18.424 36.1048 18.5014 36.2304 18.6106 36.3243C18.7199 36.4183 18.8557 36.4759 18.9992 36.4892C19.1427 36.5026 19.2868 36.4709 19.4115 36.3987C20.2735 35.8876 20.9438 35.1076 21.3195 34.1787C21.6987 33.2497 21.761 32.2216 21.4965 31.2537C21.4488 31.0777 21.3334 30.9278 21.1755 30.8367C21.0974 30.7899 21.0106 30.7594 20.9204 30.747C20.8302 30.7346 20.7399 30.7406 20.652 30.7647Z" fill="#838383"/>
<path d="M15.7469 45.6404C17.0184 46.2794 18.4416 46.5555 19.8598 46.4384C21.7271 46.2946 23.517 45.6319 25.0277 44.5251C26.5385 43.4183 27.7099 41.9114 28.4099 40.1744L31.1999 33.2909C31.9077 31.5596 32.1176 29.665 31.8059 27.8209C31.4942 25.9767 30.6733 24.2563 29.4359 22.8539C28.5712 21.8636 27.4687 21.1098 26.232 20.6636C24.9954 20.2175 23.6656 20.0937 22.3679 20.3039C21.0901 20.4999 19.8831 21.0171 18.8599 21.8071C17.8368 22.5971 17.0309 23.6339 16.5179 24.8204L16.4384 24.9959C15.7616 26.6492 15.6473 28.4791 16.1129 30.2039C16.2003 30.519 16.1812 30.8543 16.0587 31.1575C15.9361 31.4607 15.7168 31.715 15.4349 31.8809C13.9056 32.7825 12.717 34.1641 12.0539 35.8109L11.9759 35.9999C11.5106 37.2106 11.3615 38.52 11.5425 39.8044C11.7236 41.0888 12.229 42.3059 13.0109 43.3409C13.731 44.3103 14.6679 45.0978 15.7469 45.6404ZM18.8309 32.2784C19.2003 31.3709 19.2635 30.3676 19.0109 29.4209L18.9914 29.4254C18.6997 28.3518 18.7628 27.2127 19.1714 26.1779L19.2434 26.0279C19.5495 25.2982 20.0391 24.6601 20.6646 24.1754C21.2902 23.6908 22.0303 23.3761 22.8134 23.2619C23.6116 23.1311 24.4301 23.2061 25.1913 23.4799C25.9525 23.7537 26.6312 24.2171 27.1633 24.8264C28.0334 25.8121 28.6105 27.0214 28.8295 28.3179C29.0484 29.6143 28.9005 30.9461 28.4023 32.1629L25.6124 39.0449C25.1209 40.2643 24.299 41.3224 23.239 42.1001C22.179 42.8779 20.923 43.3445 19.6124 43.4474C18.8082 43.5122 18.0007 43.3714 17.2659 43.0381C16.5312 42.7049 15.8933 42.1901 15.4124 41.5424C14.9377 40.9303 14.6268 40.2074 14.509 39.4418C14.3912 38.6763 14.4703 37.8934 14.7389 37.1669L14.8214 36.9689C15.2414 35.9174 15.9974 35.0339 16.9724 34.4564C17.8124 33.9509 18.4634 33.1874 18.8324 32.2784M37.2824 12.2099C37.2379 12.1117 37.1705 12.0256 37.086 11.9588C37.0014 11.892 36.9021 11.8464 36.7964 11.8259C36.6173 11.7912 36.4319 11.8272 36.2789 11.9264C36.2028 11.9759 36.1373 12.04 36.0861 12.1149C36.0349 12.1898 35.999 12.274 35.9804 12.3629C35.7704 13.3574 35.8904 14.3609 36.3164 15.2729C36.7403 16.1824 37.4534 16.9261 38.3444 17.3879C38.5063 17.4732 38.6954 17.4907 38.8703 17.4366C39.0451 17.3824 39.1913 17.261 39.2766 17.0991C39.3619 16.9372 39.3795 16.748 39.3253 16.5732C39.2712 16.3984 39.1498 16.2522 38.9879 16.1669C38.3646 15.8423 37.8654 15.3219 37.567 14.6858C37.2685 14.0497 37.1875 13.3331 37.3364 12.6464C37.3624 12.4987 37.3436 12.3467 37.2824 12.2099Z" fill="#838383"/>
<path d="M38.5304 27.5053H38.7209C40.0027 27.5076 41.265 27.1915 42.3945 26.5854C43.5239 25.9793 44.4852 25.1022 45.1919 24.0328C45.9151 22.9569 46.3524 21.7145 46.4626 20.4229C46.5728 19.1312 46.3523 17.8327 45.8219 16.6498L45.7499 16.4998C44.9977 14.8815 43.7322 13.557 42.1499 12.7318C41.8594 12.5801 41.6265 12.3373 41.487 12.0407C41.3475 11.744 41.309 11.4099 41.3774 11.0893C41.7474 9.34209 41.5329 7.52168 40.7669 5.90832L40.6919 5.75832C40.1174 4.59543 39.2561 3.59807 38.1893 2.86035C37.1224 2.12262 35.8852 1.66884 34.5944 1.54182C33.2879 1.40307 31.9676 1.59919 30.7578 2.1117C29.548 2.62422 28.4886 3.43625 27.6794 4.47132C26.5197 5.94101 25.7936 7.70541 25.5829 9.56564C25.3722 11.4259 25.6853 13.308 26.4869 14.9998L29.6534 21.7198C30.4458 23.4161 31.697 24.8569 33.2654 25.8793C34.8339 26.9017 36.6586 27.4649 38.5304 27.5053ZM31.7024 4.97832C32.3526 4.66401 33.0653 4.50044 33.7874 4.49982C34.6737 4.49711 35.5428 4.74454 36.2948 5.21366C37.0468 5.68279 37.6511 6.35458 38.0384 7.15182L38.0549 7.18782C38.5412 8.20947 38.6783 9.36265 38.4449 10.4698C38.2374 11.4292 38.3515 12.4303 38.7695 13.3184C39.1876 14.2065 39.8863 14.9323 40.7579 15.3838C41.7902 15.9292 42.6099 16.8048 43.0859 17.8708C43.4148 18.5906 43.552 19.3832 43.4842 20.1717C43.4164 20.9602 43.1459 21.7177 42.6989 22.3708C42.2507 23.0419 41.6405 23.5892 40.9247 23.962C40.209 24.3349 39.4108 24.5212 38.6039 24.5038C37.2887 24.4758 36.0076 24.0804 34.9054 23.3623C33.8032 22.6442 32.9239 21.6321 32.3669 20.4403L29.2019 13.7218C28.6387 12.5332 28.4185 11.2109 28.5661 9.90383C28.7137 8.5968 29.2233 7.35693 30.0374 6.32382C30.4829 5.75382 31.0514 5.29482 31.7024 4.97832ZM13.7729 10.5238C13.8491 10.4488 13.9414 10.3922 14.0428 10.3582C14.1441 10.3241 14.2519 10.3136 14.3579 10.3273C14.5409 10.3513 14.7044 10.4473 14.8049 10.6003C14.9157 10.7457 14.9642 10.9291 14.9399 11.1103C14.8048 12.1033 14.3474 13.0245 13.6379 13.7323C12.9301 14.4418 12.0089 14.8992 11.0159 15.0343C10.9245 15.0499 10.831 15.0469 10.7408 15.0255C10.6506 15.0042 10.5656 14.9649 10.4908 14.9101C10.4161 14.8552 10.3532 14.7859 10.3058 14.7063C10.2584 14.6266 10.2275 14.5382 10.2149 14.4464C10.2023 14.3546 10.2083 14.2611 10.2326 14.1717C10.2568 14.0822 10.2988 13.9985 10.3561 13.9256C10.4133 13.8527 10.4846 13.7921 10.5658 13.7472C10.6469 13.7024 10.7362 13.6744 10.8284 13.6648C11.5249 13.5726 12.1715 13.2534 12.6683 12.7567C13.165 12.2599 13.4842 11.6133 13.5764 10.9168C13.5984 10.7682 13.6672 10.6305 13.7729 10.5238Z" fill="#838383"/>
<path d="M6.82947 24.9194C8.60523 25.5165 10.5128 25.6037 12.3357 25.1713C14.1585 24.7388 15.8236 23.804 17.142 22.4729L22.392 17.2229C23.721 15.9036 24.6544 14.2386 25.0865 12.4165C25.5186 10.5943 25.4321 8.68753 24.837 6.9119C24.4238 5.66255 23.6995 4.53888 22.7322 3.64668C21.7649 2.75447 20.5866 2.12307 19.308 1.8119C18.0457 1.49666 16.7239 1.50791 15.4672 1.84459C14.2104 2.18128 13.0601 2.83232 12.1245 3.7364L11.9895 3.8759C10.7463 5.13023 9.94363 6.75401 9.70197 8.50341C9.65767 8.82743 9.50868 9.1281 9.2777 9.35963C9.04671 9.59115 8.74639 9.74084 8.42247 9.7859C6.65757 10.0249 5.02063 10.8389 3.76497 12.1019L3.63597 12.2354C2.73609 13.1694 2.08898 14.3173 1.75568 15.5707C1.42238 16.8241 1.41387 18.1418 1.73097 19.3994C2.04218 20.6769 2.67373 21.8541 3.56604 22.8199C4.45835 23.7857 5.58049 24.5083 6.82947 24.9194ZM12.672 8.9219C12.828 7.7984 13.347 6.7589 14.1495 5.9579L14.2245 5.8784C14.7918 5.32754 15.4914 4.93204 16.2559 4.73001C17.0204 4.52798 17.8241 4.52622 18.5895 4.7249C19.3748 4.91771 20.0982 5.30699 20.6917 5.85617C21.2852 6.40535 21.7294 7.09641 21.9825 7.8644C22.4002 9.11157 22.4608 10.4507 22.1573 11.7305C21.8538 13.0103 21.1983 14.1797 20.265 15.1064L15.015 20.3564C14.0882 21.2892 12.919 21.9442 11.6396 22.2475C10.3601 22.5507 9.02129 22.4901 7.77447 22.0724C7.00688 21.8197 6.31636 21.3756 5.7681 20.7819C5.21983 20.1882 4.83192 19.4646 4.64097 18.6794C4.44199 17.8946 4.45135 17.0715 4.66813 16.2915C4.88491 15.5114 5.3016 14.8015 5.87697 14.2319C6.67235 13.4254 7.71359 12.9066 8.83647 12.7574C9.80785 12.627 10.7094 12.1809 11.4025 11.4879C12.0955 10.7949 12.5416 9.89329 12.672 8.9219Z" fill="#838383"/>
</svg>
