<svg width="48" height="48" viewBox="0 0 48 48" fill="none" xmlns="http://www.w3.org/2000/svg">
<g clip-path="url(#clip0_1319_1893)">
<path d="M8.02499 20.625C7.57499 22.875 7.34999 25.2 7.42499 27.45C7.49999 29.7 7.94999 31.95 8.62499 34.05C9.37499 36.15 10.35 38.175 11.625 40.125C12.225 41.1 12.9 42 13.65 42.9C14.4 43.8 15.15 44.625 15.975 45.45C15 44.85 14.1 44.1 13.275 43.275C12.45 42.45 11.625 41.55 10.95 40.65C9.525 38.775 8.39999 36.675 7.64999 34.425C6.89999 32.175 6.525 29.775 6.6 27.45C6.675 25.05 7.12499 22.725 8.02499 20.625ZM38.475 21C36.075 22.35 33.75 23.85 31.575 25.5C29.4 27.15 27.375 29.025 25.575 31.05C23.775 33.075 22.125 35.25 20.775 37.575C20.1 38.775 19.425 39.975 18.9 41.175C18.3 42.45 17.85 43.725 17.4 45C17.55 43.65 17.925 42.3 18.375 40.95C18.825 39.6 19.35 38.325 20.025 37.125C21.3 34.65 22.95 32.325 24.825 30.225C26.7 28.125 28.8 26.325 31.125 24.75C33.45 23.25 35.925 21.9 38.475 21Z" fill="#838383"/>
<path d="M21.375 11.0251C20.25 12.3751 18.3 11.9251 18.3 11.9251C18.3 11.9251 17.55 10.0501 18.6 8.7001C19.725 7.3501 22.35 6.9751 22.35 6.9751C22.35 6.9751 22.425 9.7501 21.375 11.0251ZM17.4 11.3251C17.7 12.6751 16.5 13.7251 16.5 13.7251C16.5 13.7251 14.925 13.2751 14.55 11.9251C14.25 10.5751 15.3 8.6251 15.3 8.6251C15.3 8.6251 17.025 9.9751 17.4 11.3251Z" fill="#AFAFAF"/>
<path d="M19.4999 15.075C18.1499 15.375 17.0999 14.175 17.0999 14.175C17.0999 14.175 17.5499 12.6 18.8999 12.225C20.2499 11.85 22.1999 12.975 22.1999 12.975C22.1999 12.975 20.8499 14.7 19.4999 15.075ZM15.1499 14.7C15.5999 15.975 14.5499 17.25 14.5499 17.25C14.5499 17.25 12.8999 17.025 12.4499 15.75C11.9999 14.475 12.7499 12.375 12.7499 12.375C12.7499 12.375 14.6999 13.425 15.1499 14.7ZM17.6999 18.15C16.4249 18.6 15.1499 17.55 15.1499 17.55C15.1499 17.55 15.3749 15.9 16.6499 15.45C17.9249 15 20.0249 15.75 20.0249 15.75C20.0249 15.75 18.9749 17.7 17.6999 18.15ZM13.6499 18.3C14.3249 19.575 13.2749 21 13.2749 21C13.2749 21 11.5499 20.925 10.8749 19.65C10.1999 18.375 10.8749 16.125 10.8749 16.125C10.8749 16.125 13.0499 16.95 13.6499 18.3ZM16.6499 21.6C15.3749 22.275 13.9499 21.225 13.9499 21.225C13.9499 21.225 14.0249 19.5 15.2999 18.825C16.5749 18.15 18.8249 18.825 18.8249 18.825C18.8249 18.825 17.9999 20.925 16.6499 21.6ZM12.2999 22.5C13.1999 23.775 12.3749 25.5 12.3749 25.5C12.3749 25.5 10.4999 25.8 9.5999 24.45C8.6999 23.175 8.9249 20.625 8.9249 20.625C8.9249 20.625 11.3999 21.225 12.2999 22.5ZM16.1999 25.575C14.9249 26.475 13.1999 25.65 13.1999 25.65C13.1999 25.65 12.8999 23.775 14.2499 22.875C15.5999 21.975 18.0749 22.2 18.0749 22.2C18.0749 22.2 17.4749 24.6 16.1999 25.575ZM11.4749 27.525C12.5999 28.725 11.9249 30.675 11.9249 30.675C11.9249 30.675 9.9749 31.2 8.8499 30C7.7249 28.8 7.6499 26.1 7.6499 26.1C7.6499 26.1 10.3499 26.25 11.4749 27.525ZM15.8999 30.15C14.6999 31.275 12.7499 30.6 12.7499 30.6C12.7499 30.6 12.2249 28.65 13.4249 27.525C14.6249 26.4 17.3249 26.325 17.3249 26.325C17.3249 26.325 17.1749 29.025 15.8999 30.15Z" fill="#AFAFAF"/>
<path d="M18.3748 11.8501C16.4998 14.1751 15.1498 16.8751 14.3248 19.6501C13.9498 21.0751 13.5748 22.5001 13.3498 23.9251C13.1248 25.3501 12.9748 26.8501 12.8998 28.3501C12.8248 29.8501 12.8248 31.2751 12.8248 32.7751C12.8248 34.2751 12.9748 35.7001 13.0498 37.2001C13.1998 38.7001 13.3498 40.1251 13.5748 41.6251C13.7998 43.1251 14.0248 44.5501 14.3248 46.0501C13.8748 44.6251 13.4998 43.2001 13.1998 41.7001C12.8998 40.2751 12.5998 38.7751 12.4498 37.2751C12.2248 35.7751 12.1498 34.2751 12.0748 32.7751C11.9998 31.2751 11.9998 29.7751 12.0748 28.2751C12.1873 26.0251 12.2998 25.2751 12.5998 23.7751C12.8998 22.2751 13.1998 20.8501 13.7248 19.4251C14.1748 18.0001 14.8498 16.6501 15.5998 15.3001C16.3498 14.1001 17.2498 12.9001 18.3748 11.8501Z" fill="#AFAFAF"/>
<path d="M38.775 6.525C36.975 7.8 34.575 6.6 34.575 6.6C34.575 6.6 34.275 3.975 36.075 2.7C37.875 1.425 41.4 1.8 41.4 1.8C41.4 1.8 40.575 5.25 38.775 6.525ZM33.75 5.55C33.675 7.35 31.725 8.25 31.725 8.25C31.725 8.25 29.85 7.2 29.925 5.4C30 3.6 31.95 1.5 31.95 1.5C31.95 1.5 33.825 3.75 33.75 5.55Z" fill="#838383"/>
<path d="M35.0999 10.8748C33.2999 10.7998 32.3999 8.8498 32.3999 8.8498C32.3999 8.8498 33.4499 6.9748 35.2499 7.0498C37.0499 7.1248 39.1499 9.0748 39.1499 9.0748C39.1499 9.0748 36.8999 10.9498 35.0999 10.8748ZM29.7749 8.9998C29.9249 10.7998 28.1249 11.9248 28.1249 11.9248C28.1249 11.9248 26.1749 11.0998 25.9499 9.2998C25.7999 7.4998 27.4499 5.1748 27.4499 5.1748C27.4499 5.1748 29.6249 7.1998 29.7749 8.9998ZM31.7999 14.1748C29.9999 14.3248 28.8749 12.5248 28.8749 12.5248C28.8749 12.5248 29.6999 10.5748 31.4999 10.3498C33.2999 10.1998 35.6249 11.8498 35.6249 11.8498C35.6249 11.8498 33.5999 14.0248 31.7999 14.1748ZM26.6999 12.9748C27.0749 14.8498 25.2749 16.1998 25.2749 16.1998C25.2749 16.1998 23.0999 15.5248 22.7999 13.7248C22.4249 11.8498 23.9249 9.2998 23.9249 9.2998C23.9249 9.2998 26.3249 11.0998 26.6999 12.9748ZM29.3249 18.1498C27.4499 18.5248 26.0999 16.7248 26.0999 16.7248C26.0999 16.7248 26.7749 14.5498 28.5749 14.2498C30.4499 13.8748 32.9999 15.3748 32.9999 15.3748C32.9999 15.3748 31.1999 17.7748 29.3249 18.1498ZM23.5499 17.8498C24.2999 19.7998 22.6499 21.5998 22.6499 21.5998C22.6499 21.5998 20.2499 21.2998 19.4999 19.3498C18.7499 17.3998 19.9499 14.3248 19.9499 14.3248C19.9499 14.3248 22.8749 15.8998 23.5499 17.8498ZM27.3749 22.9498C25.4249 23.6998 23.6249 22.0498 23.6249 22.0498C23.6249 22.0498 23.9249 19.6498 25.8749 18.8998C27.8249 18.1498 30.8999 19.3498 30.8999 19.3498C30.8999 19.3498 29.3249 22.1998 27.3749 22.9498ZM20.8499 23.7748C21.8999 25.7248 20.3999 27.8248 20.3999 27.8248C20.3999 27.8248 17.7749 27.8248 16.7999 25.8748C15.8249 23.9248 16.6499 20.5498 16.6499 20.5498C16.6499 20.5498 19.7999 21.8248 20.8499 23.7748ZM25.4999 28.6498C23.5499 29.6998 21.4499 28.1998 21.4499 28.1998C21.4499 28.1998 21.4499 25.5748 23.3999 24.5998C25.3499 23.5498 28.7249 24.4498 28.7249 24.4498C28.7249 24.4498 27.4499 27.5998 25.4999 28.6498Z" fill="#838383"/>
<path d="M34.7999 6.6001C31.6499 8.8501 29.0998 11.7751 27.0748 15.0001C26.0998 16.6501 25.1998 18.3001 24.4498 20.1001C23.6998 21.8251 23.0248 23.6251 22.4248 25.4251C21.8248 27.2251 21.2998 29.1001 20.8498 30.9751C20.3998 32.8501 20.0249 34.7251 19.6499 36.6001C19.3499 38.4751 19.0498 40.4251 18.7498 42.3001C18.5248 44.1751 18.2999 46.1251 18.1499 48.0751C18.0749 46.1251 18.0748 44.1751 18.2248 42.3001C18.3748 40.3501 18.5248 38.4001 18.7498 36.5251C18.9748 34.5751 19.3498 32.7001 19.7998 30.8251C20.2498 28.9501 20.6998 27.0751 21.2998 25.2001C21.8998 23.3251 22.6498 21.5251 23.4748 19.7251C24.2998 17.9251 25.2748 16.2751 26.3248 14.6251C27.4498 12.9751 28.6498 11.4751 30.0748 10.1251C31.4998 8.7001 33.0749 7.5001 34.7999 6.6001Z" fill="#838383"/>
<path d="M29.5501 29.625C27.6751 30 25.875 30.525 24.225 31.275C22.575 32.025 21.075 33.075 19.725 34.35C18.45 35.625 17.4 37.125 16.5 38.775C16.05 39.6 15.675 40.425 15.375 41.325C15.075 42.225 14.775 43.125 14.55 44.025C14.55 43.05 14.625 42.15 14.85 41.175C15.075 40.275 15.3 39.3 15.675 38.4C16.425 36.6 17.475 34.95 18.9 33.6C20.325 32.25 21.975 31.2 23.85 30.525C25.725 29.85 27.6751 29.55 29.5501 29.625Z" fill="#838383"/>
</g>
<defs>
<clipPath id="clip0_1319_1893">
<rect width="48" height="48" fill="white"/>
</clipPath>
</defs>
</svg>
