<svg width="226" height="152" viewBox="0 0 226 152" fill="none" xmlns="http://www.w3.org/2000/svg">
<path d="M182.213 57.5432C179.049 41.5133 170.419 27.0789 157.796 16.7054C145.172 6.33188 129.339 0.66281 113 0.666506C85.7858 0.666506 62.15 16.1098 50.3792 38.7098C36.5389 40.2055 23.7395 46.763 14.4404 57.1224C5.14123 67.4818 -0.00161686 80.9123 3.81307e-07 94.8332C3.81307e-07 126.002 25.3308 151.333 56.5 151.333H178.917C204.907 151.333 226 130.24 226 104.25C226 79.3898 206.696 59.2382 182.213 57.5432ZM100.853 116.397C99.9813 117.27 98.9465 117.963 97.8074 118.435C96.6682 118.908 95.447 119.151 94.2138 119.151C92.9805 119.151 91.7593 118.908 90.6201 118.435C89.481 117.963 88.4462 117.27 87.575 116.397L67.8 96.7165C66.9282 95.8447 66.2366 94.8097 65.7648 93.6706C65.293 92.5315 65.0501 91.3107 65.0501 90.0778C65.0501 87.5877 66.0393 85.1997 67.8 83.439C69.5607 81.6783 71.9487 80.6891 74.4388 80.6891C76.9288 80.6891 79.3168 81.6783 81.0775 83.439L94.1667 96.5282L136.353 54.3415C138.114 52.5808 140.502 51.5916 142.992 51.5916C145.482 51.5916 147.87 52.5808 149.631 54.3415C151.392 56.1022 152.381 58.4902 152.381 60.9803C152.381 63.4703 151.392 65.8583 149.631 67.619L100.853 116.397Z" fill="#4B8E4B"/>
</svg>
