<svg xmlns="http://www.w3.org/2000/svg" viewBox="0 0 500 500"><g id="freepik--background-complete--inject-109"><rect y="382.4" width="500" height="0.25" style="fill:#ebebeb"></rect><rect x="416.78" y="398.49" width="33.12" height="0.25" style="fill:#ebebeb"></rect><rect x="322.53" y="401.21" width="8.69" height="0.25" style="fill:#ebebeb"></rect><rect x="396.59" y="389.21" width="19.19" height="0.25" style="fill:#ebebeb"></rect><rect x="52.46" y="390.89" width="43.19" height="0.25" style="fill:#ebebeb"></rect><rect x="104.56" y="390.89" width="6.33" height="0.25" style="fill:#ebebeb"></rect><rect x="131.47" y="395.11" width="93.68" height="0.25" style="fill:#ebebeb"></rect><path d="M237,337.8H43.91a5.71,5.71,0,0,1-5.7-5.71V60.66A5.71,5.71,0,0,1,43.91,55H237a5.71,5.71,0,0,1,5.71,5.71V332.09A5.71,5.71,0,0,1,237,337.8ZM43.91,55.2a5.46,5.46,0,0,0-5.45,5.46V332.09a5.46,5.46,0,0,0,5.45,5.46H237a5.47,5.47,0,0,0,5.46-5.46V60.66A5.47,5.47,0,0,0,237,55.2Z" style="fill:#ebebeb"></path><path d="M453.31,337.8H260.21a5.72,5.72,0,0,1-5.71-5.71V60.66A5.72,5.72,0,0,1,260.21,55h193.1A5.71,5.71,0,0,1,459,60.66V332.09A5.71,5.71,0,0,1,453.31,337.8ZM260.21,55.2a5.47,5.47,0,0,0-5.46,5.46V332.09a5.47,5.47,0,0,0,5.46,5.46h193.1a5.47,5.47,0,0,0,5.46-5.46V60.66a5.47,5.47,0,0,0-5.46-5.46Z" style="fill:#ebebeb"></path><path d="M117.78,94a6.77,6.77,0,0,1,6.77-6.77,6.9,6.9,0,0,1,1.94.29,14.34,14.34,0,0,1,14.18-16.41,14.41,14.41,0,0,1,2.64.25,12.53,12.53,0,0,1,23.23,6.33h.2a11.55,11.55,0,1,1,0,23.09H124.36A6.77,6.77,0,0,1,117.78,94Z" style="fill:#f5f5f5"></path><path d="M390.51,188.61a6.77,6.77,0,0,1,6.77-6.77,7,7,0,0,1,1.94.28,14.11,14.11,0,0,1-.15-2.07A14.36,14.36,0,0,1,416,166a12.52,12.52,0,0,1,23.22,6.34l.21,0a11.55,11.55,0,1,1,0,23.09H397.09A6.76,6.76,0,0,1,390.51,188.61Z" style="fill:#f5f5f5"></path><path d="M227.8,221.74a6.77,6.77,0,0,1,6.77-6.77,6.6,6.6,0,0,1,1.94.29,14.31,14.31,0,0,1,16.82-16.16,12.52,12.52,0,0,1,23.22,6.33h.21a11.54,11.54,0,1,1,0,23.08H234.38A6.76,6.76,0,0,1,227.8,221.74Z" style="fill:#f5f5f5"></path><path d="M58.91,183.35a4.09,4.09,0,0,1,5.26-3.92,8.67,8.67,0,0,1,8.57-9.92,8.43,8.43,0,0,1,1.6.15,7.56,7.56,0,0,1,14,3.83h.13a7,7,0,0,1,0,14H62.88A4.08,4.08,0,0,1,58.91,183.35Z" style="fill:#f5f5f5"></path><path d="M291.47,124.47a4.09,4.09,0,0,1,4.09-4.09,3.77,3.77,0,0,1,1.17.18,8.67,8.67,0,0,1,8.57-9.92,8.43,8.43,0,0,1,1.6.15,7.57,7.57,0,0,1,14,3.82h.12a7,7,0,1,1,0,14H295.44A4.09,4.09,0,0,1,291.47,124.47Z" style="fill:#f5f5f5"></path><path d="M354.71,81.16a4.09,4.09,0,0,1,4.09-4.09,4.14,4.14,0,0,1,1.17.17,8.67,8.67,0,0,1,8.57-9.92,9.43,9.43,0,0,1,1.6.15,7.57,7.57,0,0,1,14,3.83h.13a7,7,0,0,1,0,14H358.68A4.08,4.08,0,0,1,354.71,81.16Z" style="fill:#f5f5f5"></path><polygon points="440.02 325.28 440.02 314.23 442.63 314.23 442.63 312.27 440.02 312.27 440.02 310.56 417.74 310.56 417.74 312.27 415.14 312.27 415.14 314.23 417.74 314.23 417.74 317.94 410.07 317.94 410.07 325.28 407.04 325.28 407.04 279.31 406.07 279.31 406.07 278.77 408.33 278.77 408.33 277.99 406.07 277.99 406.07 276.22 401.49 276.22 401.49 263.75 400.18 263.75 400.18 276.22 399.49 276.22 399.49 277.99 398.69 277.99 398.69 278.77 399.49 278.77 399.49 304.34 393.32 304.34 393.32 301.32 391.74 301.32 391.74 291.7 390.03 291.7 390.03 301.32 386.73 301.32 386.73 304.34 381.53 304.34 381.53 296.56 349.22 296.56 349.22 269.64 343.24 269.64 343.24 236.73 338.45 236.73 338.45 269.04 327.08 269.04 327.08 316.91 305.55 316.91 305.55 269.04 301.02 269.04 301.02 262.46 302.73 262.46 302.73 260.58 295.71 260.58 295.71 258.49 293.9 258.49 293.9 254.25 291.25 254.25 291.25 243.84 290.2 243.84 290.2 254.25 287.96 254.25 287.96 258.49 285.46 258.49 285.46 248.58 284.8 248.58 284.8 239.48 284.17 239.48 284.17 248.58 282.88 248.58 282.88 258.49 270.06 258.49 270.06 269.04 266.65 269.04 266.65 285.48 247.77 285.48 247.77 258.62 244.17 258.62 244.17 253.33 236.4 253.33 236.4 241.46 235.75 241.46 235.75 253.33 228.62 253.33 228.62 258.62 223.74 258.62 223.74 269.04 194.46 269.04 194.46 316.91 172.91 316.91 172.91 269.04 161.55 269.04 161.55 236.73 156.76 236.73 156.76 269.64 150.78 269.64 150.78 296.56 118.47 296.56 118.47 304.34 100.52 304.34 100.52 276.22 98.2 276.22 98.2 261.59 96.89 261.59 96.89 276.22 93.93 276.22 93.93 325.28 74.47 325.28 74.47 317.68 72.62 317.68 72.62 315.64 73.58 315.64 73.58 313.24 72.62 313.24 72.62 311.09 63.52 311.09 63.52 313.24 62.73 313.24 62.73 315.64 63.52 315.64 63.52 317.68 59.96 317.68 59.96 294.08 58.72 294.08 58.72 317.68 53.76 317.68 53.76 325.28 47.26 325.28 47.26 382.73 250 382.13 452.74 382.73 452.74 325.28 440.02 325.28" style="fill:#f5f5f5"></polygon><path d="M165.5,375.27l-2.24-1.12" style="fill:none;stroke:#e0e0e0;stroke-linecap:round;stroke-linejoin:round;stroke-width:2px"></path><path d="M158.8,371.84c-24-12.63-103.26-57.69-85.62-93,36.2-72.54,301.49-14.19,333-69.14,27.59-48.09-53.88-84.63-74.63-93" style="fill:none;stroke:#e0e0e0;stroke-linecap:round;stroke-linejoin:round;stroke-width:2px;stroke-dasharray:5.03341007232666,5.03341007232666"></path><path d="M329.21,115.76c-1.5-.58-2.34-.88-2.34-.88" style="fill:none;stroke:#e0e0e0;stroke-linecap:round;stroke-linejoin:round;stroke-width:2px"></path><polygon points="326.37 99.72 320.39 103.84 318.73 114.88 314.68 107.06 304.44 112.22 286.4 97.75 326.37 99.72" style="fill:#e0e0e0"></polygon><polygon points="318.73 114.88 286.4 97.75 314.68 107.06 318.73 114.88" style="fill:#e6e6e6"></polygon><polygon points="326.37 99.72 320.39 103.84 318.73 114.88 314.68 107.06 304.44 112.22 286.4 97.75 326.37 99.72" style="fill:#f0f0f0;isolation:isolate"></polygon><polygon points="320.39 103.84 286.4 97.75 314.68 107.06 318.73 114.88 320.39 103.84" style="fill:#e0e0e0;isolation:isolate"></polygon></g><g id="freepik--Shadow--inject-109"><ellipse id="freepik--path--inject-109" cx="250" cy="416.24" rx="193.89" ry="11.32" style="fill:#f5f5f5"></ellipse></g><g id="freepik--Plant--inject-109"><path d="M399.43,384.8c.15-1,3.65-25.17-3.36-33.51a7.61,7.61,0,0,0-5.82-2.87c-14.16-.33-16.09,11-16.11,11.15l1.67.26c.06-.41,1.74-10,14.39-9.72a5.9,5.9,0,0,1,4.57,2.27c6.53,7.76,3,31.93,3,32.17Z" style="fill:#4B8E4B"></path><path d="M400.28,383.7l1.69-.05c0-.23-.56-22.25,10.29-26.81,10.64-4.45,15.42,4.71,15.62,5.1l1.51-.76c-.05-.11-5.67-11-17.78-5.89C399.69,360.29,400.25,382.74,400.28,383.7Z" style="fill:#4B8E4B"></path><path d="M400.23,385.43c0-.35.1-35.19,6.9-45.38,6.52-9.78,17-5.18,17.48-5l.7-1.53c-.12-.06-12.26-5.42-19.59,5.57-7.07,10.61-7.17,44.86-7.18,46.32Z" style="fill:#4B8E4B"></path><path d="M388.22,349.26s6.18,2.28,4.34,7.66-21.37,14.23-21.37,14.23-8.19-7.51-.67-19.7S388.05,345.41,388.22,349.26Z" style="fill:#4B8E4B"></path><path d="M407.43,338.21s-4.38-.47-4-3.14,17.05-9.55,26.91,1.57c0,0-6.31,10.84-15.43,11S407.43,338.21,407.43,338.21Z" style="fill:#4B8E4B"></path><path d="M411.94,356.07s-3-2.45.24-3.64,19.3-.86,19.46,15c0,0-18.67,3.1-21-2.95S411.94,356.07,411.94,356.07Z" style="fill:#4B8E4B"></path><path d="M388.22,349.26s6.18,2.28,4.34,7.66-21.37,14.23-21.37,14.23-8.19-7.51-.67-19.7S388.05,345.41,388.22,349.26Z" style="opacity:0.2;isolation:isolate"></path><path d="M407.43,338.21s-4.38-.47-4-3.14,17.05-9.55,26.91,1.57c0,0-6.31,10.84-15.43,11S407.43,338.21,407.43,338.21Z" style="opacity:0.2;isolation:isolate"></path><path d="M411.94,356.07s-3-2.45.24-3.64,19.3-.86,19.46,15c0,0-18.67,3.1-21-2.95S411.94,356.07,411.94,356.07Z" style="opacity:0.2;isolation:isolate"></path><polygon points="384.9 417.15 413.88 417.15 417 385.43 381.77 385.43 384.9 417.15" style="fill:#4B8E4B"></polygon><polygon points="384.9 417.15 413.88 417.15 417 385.43 381.77 385.43 384.9 417.15" style="fill:#fff;opacity:0.5;isolation:isolate"></polygon><rect x="380.23" y="381.93" width="38.32" height="7" transform="translate(798.78 770.85) rotate(180)" style="fill:#4B8E4B"></rect><rect x="380.23" y="381.93" width="38.32" height="7" transform="translate(798.78 770.85) rotate(180)" style="fill:#fff;opacity:0.2;isolation:isolate"></rect></g><g id="freepik--Device--inject-109"><path d="M257,114.35v288a4.2,4.2,0,0,1-4.27,4.21h-134a3.75,3.75,0,0,1-2.68-1.08,3.86,3.86,0,0,1-1.14-2.79V114a3.39,3.39,0,0,1,3.27-3.53H156.2a2.68,2.68,0,0,1,2.45,1.71l1.57,3.88a2.68,2.68,0,0,0,2.45,1.69h46.58a2.65,2.65,0,0,0,2.45-1.66l1.57-3.9a2.69,2.69,0,0,1,2.45-1.72h37.51A3.84,3.84,0,0,1,257,114.35Z" style="fill:#4B8E4B;isolation:isolate"></path><path d="M263,114.35v288a4.2,4.2,0,0,1-4.27,4.21h-134a3.75,3.75,0,0,1-2.68-1.08,3.86,3.86,0,0,1-1.14-2.79V114a3.39,3.39,0,0,1,3.27-3.53H162.2a2.68,2.68,0,0,1,2.45,1.71l1.57,3.88a2.68,2.68,0,0,0,2.45,1.69h46.58a2.65,2.65,0,0,0,2.45-1.66l1.57-3.9a2.69,2.69,0,0,1,2.45-1.72h37.51A3.84,3.84,0,0,1,263,114.35Z" style="fill:#4B8E4B"></path><path d="M263,114.35v288a4.2,4.2,0,0,1-4.27,4.21h-134a3.75,3.75,0,0,1-2.68-1.08,3.86,3.86,0,0,1-1.14-2.79V114a3.39,3.39,0,0,1,3.27-3.53H162.2a2.68,2.68,0,0,1,2.45,1.71l1.57,3.88a2.68,2.68,0,0,0,2.45,1.69h46.58a2.65,2.65,0,0,0,2.45-1.66l1.57-3.9a2.69,2.69,0,0,1,2.45-1.72h37.51A3.84,3.84,0,0,1,263,114.35Z" style="fill:#fff;opacity:0.4"></path><path d="M235.8,219.77a43.89,43.89,0,0,1-34.89,43,44.38,44.38,0,0,1-18,0,43.89,43.89,0,1,1,52.87-43Z" style="fill:#4B8E4B"></path><rect x="138.54" y="119.43" width="1.98" height="2.64" transform="translate(279.06 241.49) rotate(180)" style="fill:#fff;opacity:0.6000000000000001;isolation:isolate"></rect><rect x="135.31" y="118.54" width="1.98" height="3.52" transform="translate(272.6 240.61) rotate(180)" style="fill:#fff;opacity:0.6000000000000001;isolation:isolate"></rect><rect x="132.08" y="117.66" width="1.98" height="4.4" transform="translate(266.15 239.73) rotate(180)" style="fill:#fff;opacity:0.6000000000000001;isolation:isolate"></rect><rect x="128.86" y="116.78" width="1.98" height="5.28" transform="translate(259.69 238.85) rotate(180)" style="fill:#fff;opacity:0.6000000000000001;isolation:isolate"></rect><rect x="243.65" y="118.46" width="1.17" height="2.64" style="fill:#fff;opacity:0.6000000000000001;isolation:isolate"></rect><rect x="245.63" y="117.5" width="9.35" height="4.57" transform="translate(500.62 239.56) rotate(180)" style="fill:#fff;opacity:0.6000000000000001;isolation:isolate"></rect><path d="M178.17,229.29a15.74,15.74,0,0,1,15.77-24.35" style="fill:none;stroke:#fff;stroke-linecap:round;stroke-linejoin:round;opacity:0.4"></path><path d="M199.67,207.18a15.54,15.54,0,0,1,4.53,4.4" style="fill:none;stroke:#fff;stroke-linecap:round;stroke-linejoin:round;opacity:0.4"></path><circle cx="191.18" cy="220.43" r="17.63" transform="translate(-34.38 405.54) rotate(-88.44)" style="fill:none"></circle><path d="M208.87,208.4a21.4,21.4,0,1,0-7.82,31l2.3,3.38a3.69,3.69,0,0,0,.53,3l17.28,25.41a3.77,3.77,0,1,0,6.23-4.24l-17.28-25.4A3.73,3.73,0,0,0,207.5,240l-2.3-3.38A21.41,21.41,0,0,0,208.87,208.4Zm-32.26,21.95A17.63,17.63,0,1,1,201.1,235,17.64,17.64,0,0,1,176.61,230.35Z" style="fill:#fff"></path><rect x="136.32" y="292.81" width="17.45" height="17.44" rx="2.45" style="opacity:0.2"></rect><path d="M154.85,316.5H135.23a1,1,0,0,1-1-1h0a1,1,0,0,1,1-1h19.62a1,1,0,0,1,1,1h0A1,1,0,0,1,154.85,316.5Z" style="opacity:0.2"></path><rect x="167.57" y="292.81" width="17.44" height="17.44" rx="2.45" style="opacity:0.2"></rect><path d="M186.1,316.5H166.49a1,1,0,0,1-1-1h0a1,1,0,0,1,1-1H186.1a1,1,0,0,1,1,1h0A1,1,0,0,1,186.1,316.5Z" style="opacity:0.2"></path><rect x="198.82" y="292.81" width="17.44" height="17.44" rx="2.45" style="opacity:0.2"></rect><path d="M217.35,316.5H197.74a1,1,0,0,1-1-1h0a1,1,0,0,1,1-1h19.61a1,1,0,0,1,1,1h0A1,1,0,0,1,217.35,316.5Z" style="opacity:0.2"></path><rect x="230.08" y="292.81" width="17.44" height="17.44" rx="2.45" style="opacity:0.2"></rect><path d="M248.61,316.5H229a1,1,0,0,1-1-1h0a1,1,0,0,1,1-1h19.62a1,1,0,0,1,1,1h0A1,1,0,0,1,248.61,316.5Z" style="opacity:0.2"></path><rect x="136.32" y="334.66" width="17.45" height="17.45" rx="2.45" style="opacity:0.2"></rect><path d="M154.85,358.36H135.23a1,1,0,0,1-1-1h0a1,1,0,0,1,1-1h19.62a1,1,0,0,1,1,1h0A1,1,0,0,1,154.85,358.36Z" style="opacity:0.2"></path><rect x="167.57" y="334.66" width="17.44" height="17.45" rx="2.45" style="opacity:0.2"></rect><path d="M186.1,358.36H166.49a1,1,0,0,1-1-1h0a1,1,0,0,1,1-1H186.1a1,1,0,0,1,1,1h0A1,1,0,0,1,186.1,358.36Z" style="opacity:0.2"></path><rect x="198.82" y="334.66" width="17.44" height="17.45" rx="2.45" style="opacity:0.2"></rect><path d="M217.35,358.36H197.74a1,1,0,0,1-1-1h0a1,1,0,0,1,1-1h19.61a1,1,0,0,1,1,1h0A1,1,0,0,1,217.35,358.36Z" style="opacity:0.2"></path><rect x="230.08" y="334.66" width="17.44" height="17.45" rx="2.45" style="opacity:0.2"></rect><path d="M248.61,358.36H229a1,1,0,0,1-1-1h0a1,1,0,0,1,1-1h19.62a1,1,0,0,1,1,1h0A1,1,0,0,1,248.61,358.36Z" style="opacity:0.2"></path><rect x="128.86" y="138.27" width="126.13" height="18.07" rx="2.72" style="fill:#fff;opacity:0.6000000000000001"></rect><g style="opacity:0.6000000000000001"><path d="M143.4,144.11l-1.87,5.52h-.61l-1.62-4.71-1.62,4.71h-.61l-1.86-5.52h.6l1.59,4.75,1.65-4.75h.54l1.63,4.77,1.62-4.77Z"></path><path d="M152.17,144.11l-1.86,5.52h-.62l-1.62-4.71-1.62,4.71h-.61L144,144.11h.6l1.59,4.75,1.65-4.75h.55l1.62,4.77,1.62-4.77Z"></path><path d="M160.94,144.11l-1.86,5.52h-.62l-1.61-4.71-1.63,4.71h-.61l-1.86-5.52h.6l1.59,4.75,1.65-4.75h.55l1.62,4.77,1.62-4.77Z"></path><path d="M161.36,149.23a.42.42,0,0,1,.42-.42.42.42,0,0,1,.43.42.44.44,0,0,1-.43.44A.43.43,0,0,1,161.36,149.23Z"></path><path d="M163.52,144.11h2.25a2.77,2.77,0,1,1,0,5.52h-2.25Zm2.22,5a2.26,2.26,0,1,0,0-4.51H164.1v4.51Z"></path><path d="M169.55,146.87a2.9,2.9,0,1,1,2.91,2.81A2.78,2.78,0,0,1,169.55,146.87Zm5.22,0a2.32,2.32,0,1,0-2.31,2.29A2.24,2.24,0,0,0,174.77,146.87Z"></path><path d="M182.4,144.11v5.52h-.56v-4.42l-2.17,3.72h-.27l-2.17-3.7v4.4h-.56v-5.52h.48l2.4,4.09,2.37-4.09Z"></path><path d="M187.67,148.15h-3.08l-.66,1.48h-.61l2.53-5.52h.57l2.53,5.52h-.62Zm-.21-.47-1.33-3-1.32,3Z"></path><path d="M189.87,144.11h.58v5.52h-.58Z"></path><path d="M196.87,144.11v5.52h-.49l-3.55-4.48v4.48h-.58v-5.52h.48l3.56,4.48v-4.48Z"></path><path d="M203.28,144.11v5.52h-.48l-3.55-4.48v4.48h-.58v-5.52h.48l3.56,4.48v-4.48Z"></path><path d="M208.55,148.15h-3.07l-.67,1.48h-.6l2.52-5.52h.58l2.52,5.52h-.62Zm-.21-.47-1.33-3-1.32,3Z"></path><path d="M216.48,144.11v5.52h-.56v-4.42l-2.17,3.72h-.27l-2.17-3.7v4.4h-.56v-5.52h.48l2.4,4.09,2.37-4.09Z"></path><path d="M222.19,149.12v.51h-3.9v-5.52h3.79v.5h-3.21v2h2.86v.49h-2.86v2.05Z"></path><path d="M223,149l.23-.45a2.76,2.76,0,0,0,1.82.67c1,0,1.49-.43,1.49-1,0-1.51-3.4-.58-3.4-2.63,0-.81.63-1.51,2-1.51a3.07,3.07,0,0,1,1.71.49l-.19.46a2.93,2.93,0,0,0-1.52-.45c-1,0-1.46.45-1.46,1,0,1.51,3.4.6,3.4,2.61,0,.81-.64,1.51-2.06,1.51A3,3,0,0,1,223,149Z"></path><path d="M228.1,149.23a.42.42,0,0,1,.42-.42.42.42,0,0,1,.43.42.44.44,0,0,1-.43.44A.43.43,0,0,1,228.1,149.23Z"></path><path d="M229.61,146.87a2.77,2.77,0,0,1,2.9-2.81,2.7,2.7,0,0,1,2,.8l-.37.37a2.23,2.23,0,0,0-1.64-.65,2.29,2.29,0,1,0,0,4.58,2.17,2.17,0,0,0,1.64-.67l.37.37a2.69,2.69,0,0,1-2,.82A2.78,2.78,0,0,1,229.61,146.87Z"></path><path d="M235.17,146.87a2.9,2.9,0,1,1,2.9,2.81A2.78,2.78,0,0,1,235.17,146.87Zm5.21,0a2.32,2.32,0,1,0-2.31,2.29A2.23,2.23,0,0,0,240.38,146.87Z"></path><path d="M248,144.11v5.52h-.56v-4.42l-2.17,3.72H245l-2.17-3.7v4.4h-.56v-5.52h.48l2.4,4.09,2.38-4.09Z"></path></g><g style="opacity:0.1;isolation:isolate"><path d="M184.8,117.75,143.89,271h0l-.46,1.72h0l-.73,2.76h0l-.47,1.72-21.36,80V260.39l40-149.92h1.31a2.68,2.68,0,0,1,2.45,1.71l1.57,3.88a2.68,2.68,0,0,0,2.45,1.69Z" style="fill:#fff"></path><polygon points="262.97 196.01 262.97 292.84 237.46 388.42 236.84 390.74 232.63 406.51 206.78 406.51 210.99 390.75 211.66 388.21 215.04 375.55 215.71 373.02 217.07 367.96 217.74 365.42 219.09 360.36 219.77 357.83 241.03 278.17 241.03 278.16 242.02 274.48 242.02 274.47 262.97 196.01" style="fill:#fff"></polygon><path d="M198.81,117.75,158.15,270l-.24.91-2.23,8.34-.24.91L122,405.43a3.86,3.86,0,0,1-1.14-2.79V387.91l28.76-107.72.24-.91,2.23-8.34.24-.91L193,117.75Z" style="fill:#fff"></path></g></g><g id="freepik--Globe--inject-109"><rect x="90.17" y="388.62" width="8.94" height="26.01" style="fill:#263238"></rect><g style="opacity:0.2"><rect x="90.17" y="388.62" width="8.94" height="26.01" style="fill:#fff"></rect></g><path d="M62.62,378.75a1.26,1.26,0,0,0,.9-.37l64.24-64.24a1.28,1.28,0,0,0-1.81-1.8L61.72,376.58a1.27,1.27,0,0,0,.9,2.17Z" style="fill:#263238"></path><path d="M94.74,390.76a45.42,45.42,0,0,0,32.11-77.52l-3.61,3.61a40.32,40.32,0,1,1-57,57l-3.61,3.61A45.3,45.3,0,0,0,94.74,390.76Z" style="fill:#263238"></path><polygon points="68.01 416.07 68.01 417.15 121.03 417.15 121.03 416.07 104.39 408.88 84.65 408.88 68.01 416.07" style="fill:#263238"></polygon><g style="opacity:0.2"><path d="M62.62,378.75a1.26,1.26,0,0,0,.9-.37l64.24-64.24a1.28,1.28,0,0,0-1.81-1.8L61.72,376.58a1.27,1.27,0,0,0,.9,2.17Z" style="fill:#fff"></path></g><circle cx="94.74" cy="345.36" r="38.96" style="fill:#4B8E4B"></circle><circle cx="94.74" cy="345.36" r="38.96" style="fill:#fff;opacity:0.2"></circle><path d="M55.88,348.07c4.84-2.34,7.19-4.24,6.74-1.61a28.66,28.66,0,0,0,.05,6.89s.81,1.52,3.17.85,2.18-1,3.19-1,7.58.16,5.55,2.69-1.17,3.7-3,4.21-2.53,3-2.7,3.54a13.1,13.1,0,0,1-2,2.18l-4.21,1.64a39.24,39.24,0,0,0,7.55,8.18,8.37,8.37,0,0,1,3.72-1.23c2.18,0,2.51,1.18,3.59,1.62s.95,0,.95,0,1,1.24,2.11.68,5,.05,5.63.05,3.7-1.34,5.07-.37,1.67.72,1.83,1.89c.13.91.07,2.74-1.72,5.9a38.47,38.47,0,0,0,12.19-.87c-1.63-1-.87-7.23-2.19-9.92s-1.37-3.36-.87-4.54,1.52,0,2.36,0A3.07,3.07,0,0,0,105.4,366a19.86,19.86,0,0,1,.83-3.87s1.52-2.86,2.19-2.86,2.7.17,3.37-.17.67-.84,1-1.72.5-4.85-.34-4.67a5.79,5.79,0,0,1-2.52-.69,21.18,21.18,0,0,0-3-.61c-.49.05-.67-1.57-.67-1.57s3.2-1.85,3.2-2.53-1.17-.83-1.34-2.86,1.51-2,3.36-1.66,0,.82,0,2.41.16,1.45,2.19,0,1.51.09,2,0a18.11,18.11,0,0,1,3,.51s-.17,4.13,0,8.34,6.39.17,8.24-1.34c.9-.73,3.49-.37,5.89.85a38.86,38.86,0,0,0-6.1-30.42.38.38,0,0,1-.45.08c-.74-.32-3,.36-3.54-.14s-2.69.5-3.78,0a4.07,4.07,0,0,1-2-3.61,22.8,22.8,0,0,0-1.77-6.21c-.27-.71-.32-1-.14-1.14A39,39,0,0,0,83.58,308c1.44,2.44,2.54,5.24,1,6.45-2.95,2.36-1.31,4.38.73,6.23s.65,3.53,0,4.21-1.81,2.35-.73,3.19S88.13,330,86.4,331s-.7,3.54-3.57,1.36-1.85-4.22-4-4.22-2.52,2.53-5.38,3.37-3,.68-3.87.33-.84-2.51-2.69-4.37a2.6,2.6,0,0,0-4.23.51c-.32.84-.85,4.76,0,5.24s-.15,3.17-1.84,3.68-3.34-2.16-4-.42a2.51,2.51,0,0,0-.11.42.67.67,0,0,1,0,.19A38.55,38.55,0,0,0,55.88,348.07ZM96,367c-2.69.67,0,0-2.81-3.2s1.59-1,1.59-1A39.28,39.28,0,0,0,96,358.07c.35-2,2.86,0,4.25,0s2.81,2,1.16,4.71c0,0,.14,1.69-1.16,1.35S98.66,366.32,96,367Zm-1.22,4.55c.79-.51,2.74.67,2.42,2.86l-2.53.67a13.21,13.21,0,0,1-2.43-2.16C91.47,371.92,93.94,372,94.74,371.54Zm-20.66-30c0-1.68.5-2.93,1.85-3.24,2.18-.5,2.7,1.56,4.64,1.73s1.09,5.3,1.09,5.3.68,2.61-2.77,1.77-5.31-.19-5.65-1.44S74.08,343.26,74.08,341.57Z" style="fill:#fff;opacity:0.5"></path></g><g id="freepik--Character--inject-109"><path d="M327.52,172.29a44.73,44.73,0,0,0,3.29-19.2c-.39-11.47,8.05-15.69,18.6-13.58s16.63,7.66,14.24,34.38A61.5,61.5,0,0,1,327.52,172.29Z" style="fill:#263238"></path><path d="M336.47,174.77s12.63-4.54,21,.47c0,0-8.1,10.86-13.2,10.37S336.47,174.77,336.47,174.77Z" style="fill:#4B8E4B"></path><path d="M336.47,174.77s12.63-4.54,21,.47c0,0-8.1,10.86-13.2,10.37S336.47,174.77,336.47,174.77Z" style="fill:#fff;opacity:0.4;isolation:isolate"></path><path d="M267.12,159l-5.87-4s-1.1-3.12-3.1-4.29a34.42,34.42,0,0,0-8.52-2.83c-1.33-.11-.22,9.31,0,10s7.86,1.91,9,1.59l5.86,5.32Z" style="fill:#e4897b"></path><path d="M325.56,179.14S298.64,177,295,175.37s-31.2-19.49-31.2-19.49L262.13,167s21.74,18.45,29.39,21.35,34,9.51,34,9.51Z" style="fill:#4B8E4B"></path><path d="M325.56,179.14S298.64,177,295,175.37s-31.2-19.49-31.2-19.49L262.13,167s21.74,18.45,29.39,21.35,34,9.51,34,9.51Z" style="fill:#fff;opacity:0.6000000000000001;isolation:isolate"></path><path d="M365,394.39l-4.82,2.84a93.83,93.83,0,0,0-7.35-8.7h0c-1.39-1.48-2.87-3.12-4.39-4.88-3.07-3.51-6.38-7.52-9.85-11.83l-3.11-3.89c-12.09-15.21-25.16-33.09-30-45.18-1.53-3.76-2.26-6.95-1.94-9.34,1-7.22,3.8-18.09,7-28.59,4.88-16.05,10.37-31.26,10.37-31.26l13.49,22.85s-4.14,9.87-7.91,20.38c-3.71,10.32-7.06,21.27-5.82,24.12.12.28.27.61.44,1,2.24,4.64,8.44,15.15,15.48,26.76.71,1.17,1.44,2.35,2.15,3.53,3.79,6.2,7.72,12.57,11.35,18.42,1.42,2.3,2.8,4.52,4.12,6.62C360.41,387.16,365,394.39,365,394.39Z" style="fill:#e4897b"></path><path d="M335.25,367.92c6.38,8,12.51,15.3,17.07,20.6.65-3.26,1.31-7.12,1.83-11.33-5.27-8.46-11.72-18.9-17.58-28.57A110.64,110.64,0,0,1,335.25,367.92Z" style="opacity:0.2;isolation:isolate"></path><path d="M359.32,301.8c-1.67,11.39-4.05,21.71-5.59,27.86-.94,3.69-1.57,5.87-1.57,5.87a308.47,308.47,0,0,1-2.06,35c-.51,4.58-1.06,9-1.62,13.07-2.11,15.14-4.32,26-4.32,26l-5.75-.75.22-37.09.12-19.66.16-26.75.07-4.66.27-20.34.41-30,20-9C362.34,272.8,361.34,288.08,359.32,301.8Z" style="fill:#e4897b"></path><path d="M334.41,276.4s-3.87,9.23-7.54,19.34a97.15,97.15,0,0,1-17-8.81c.21-.71.42-1.41.64-2.12,4.88-16.05,10.37-31.26,10.37-31.26Z" style="opacity:0.2;isolation:isolate"></path><path d="M359.42,301.09a73.4,73.4,0,0,1-20.09-6.22l.33-24.47,20-9C362.29,272.6,361.37,287.56,359.42,301.09Z" style="opacity:0.2;isolation:isolate"></path><path d="M364.6,391.24c-.59-.43-5.57,7-5.57,7s1.11,7.78-1.13,12.79,2.11,4.59,5.74-.16l9-11.75C375.2,395.77,370.71,395.68,364.6,391.24Z" style="fill:#263238"></path><path d="M357.18,403.92a.91.91,0,0,1-.72-.43,1,1,0,0,1-.2-.74,3.67,3.67,0,0,1,1.05-1.73c-.75.34-1.51.56-1.9.3s-.34-.49-.25-.93a1.4,1.4,0,0,1,.68-.94c1.14-.65,3.24,0,3.35,0l.08.05h0l.05.06h0l0,.07h0v.1c-.14.64-.87,3.87-2,4.13Zm1.55-3.59c-.79.66-1.9,1.74-2,2.48a.47.47,0,0,0,.1.39c.22.29.36.25.41.24C357.77,403.32,358.37,401.71,358.73,400.33Zm-1.57-.7a2.18,2.18,0,0,0-1.08.23.89.89,0,0,0-.45.63c0,.13-.06.37,0,.44.34.22,1.66-.37,2.87-1.12A6.71,6.71,0,0,0,357.16,399.63Z" style="fill:#4B8E4B"></path><path d="M346.2,406c0-.72-9-.15-9-.15s-5.5,5.6-10.85,6.86-2.36,4.46,3.62,4.46h14.78C349,417.15,346.38,413.54,346.2,406Z" style="fill:#263238"></path><path d="M332.52,408.12a1.22,1.22,0,0,1-.79-.22.85.85,0,0,1-.21-.95.93.93,0,0,1,.48-.61,3.7,3.7,0,0,1,2-.22c-.73-.39-1.36-.86-1.39-1.33,0-.3.18-.56.59-.75a1.38,1.38,0,0,1,1.16,0c1.2.5,2,2.57,2,2.68a.3.3,0,0,1,0,.1h0a.19.19,0,0,1,0,.07h0a.43.43,0,0,1,0,.07h0l-.08.05A11.08,11.08,0,0,1,332.52,408.12Zm.77-1.56a2.29,2.29,0,0,0-1.06.19.52.52,0,0,0-.26.31c-.08.36,0,.45.06.48.43.35,2.06-.15,3.38-.71A11.07,11.07,0,0,0,333.29,406.56Zm.52-2.19a.91.91,0,0,0-.41.1c-.12,0-.33.17-.32.3,0,.4,1.3,1.09,2.63,1.6a3.89,3.89,0,0,0-1.54-1.93A.92.92,0,0,0,333.81,404.37Z" style="fill:#4B8E4B"></path><path d="M368.75,292.42c-41.16.07-59.83-10.87-59.83-10.87,7.14-18.69,12.45-32.57,12.45-32.57l3.5-16.48,32,2.47C363.88,248.21,367.19,272.89,368.75,292.42Z" style="fill:#263238"></path><polygon points="263.35 155.14 260.77 166.87 262.58 168.31 266.24 155.63 263.35 155.14" style="fill:#4B8E4B"></polygon><path d="M324.74,179.08s-3.36,7.43-3.36,25.3V235l-5.73,23.68,52.7,6.33s-2.37-16.88-8.64-31.09l7.19-50.65S345.1,174.67,324.74,179.08Z" style="fill:#4B8E4B"></path><path d="M367,183.56c3.24,2,6,28.55,6,28.55l8.86-3.89s-.51,19.87-8.49,25.09-12.22-20.22-12.22-20.22a60.18,60.18,0,0,1,.53-15.28C363.47,187.7,367,183.56,367,183.56Z" style="fill:#4B8E4B"></path><g style="opacity:0.6000000000000001;isolation:isolate"><path d="M367,183.56c3.24,2,6,28.55,6,28.55l8.86-3.89s-.51,19.87-8.49,25.09-12.22-20.22-12.22-20.22a60.18,60.18,0,0,1,.53-15.28C363.47,187.7,367,183.56,367,183.56Z" style="fill:#fff"></path></g><path d="M373,212.11l-1.52,1L369,222.76s-3-8.72,3.74-12Z" style="opacity:0.2;isolation:isolate"></path><path d="M341.7,185.61c7.95-1,10.34-4.42,10.34-4.42-3.25-3.06-2.66-7.58-1.83-10.4a16.16,16.16,0,0,1,1-2.6L341.62,170a27.54,27.54,0,0,1,.37,4,12.07,12.07,0,0,1-.27,3c-.65,2.86-2.28,2.9-2.28,2.9C337.76,183,341.7,185.61,341.7,185.61Z" style="fill:#e4897b"></path><path d="M342,174a12.07,12.07,0,0,1-.27,3c3.8-.5,6.68-3.54,8.49-6.18a16.16,16.16,0,0,1,1-2.6L341.62,170A27.54,27.54,0,0,1,342,174Z" style="opacity:0.2;isolation:isolate"></path><path d="M343.88,144.44c-8.33-.12-11.07,4.3-11.8,12.87-.91,10.71,1.36,18.37,11.8,16.22C358.06,170.62,357.71,144.63,343.88,144.44Z" style="fill:#e4897b"></path><path d="M337.47,156.92a17.89,17.89,0,0,1-2.47,3.42,2.28,2.28,0,0,0,2.18,1Z" style="fill:#de5753"></path><path d="M342.57,156.31c0,.69.33,1.26.78,1.27s.85-.52.88-1.2-.33-1.26-.78-1.27S342.6,155.63,342.57,156.31Z" style="fill:#263238"></path><path d="M343.64,155.15l-1.47-.64S342.86,155.79,343.64,155.15Z" style="fill:#263238"></path><path d="M334.08,155.85c0,.69.32,1.25.78,1.27s.84-.52.87-1.21-.32-1.25-.78-1.26S334.11,155.17,334.08,155.85Z" style="fill:#263238"></path><path d="M335.14,154.69l-1.46-.64S334.37,155.33,335.14,154.69Z" style="fill:#263238"></path><path d="M342.74,150.56a4.33,4.33,0,0,1,3.59,1.31" style="fill:none;stroke:#263238;stroke-linecap:round;stroke-linejoin:round;stroke-width:0.707962px"></path><path d="M336.69,150.13a3.87,3.87,0,0,0-3.33.64" style="fill:none;stroke:#263238;stroke-linecap:round;stroke-linejoin:round;stroke-width:0.707962px"></path><path d="M352.78,158.6s-3.79-6.9-3.13-12.17c0,0-16.41-7-17.46,9.76,0,0-1.4-14.89,12.92-15s14,20.81,6.48,26.94C351.59,168.11,355.13,162.91,352.78,158.6Z" style="fill:#263238"></path><path d="M351.4,160.34a3.65,3.65,0,0,1,4-3.28c2.57.31,3.73,5.63-2.71,6.81C351.75,164,351.24,163.13,351.4,160.34Z" style="fill:#e4897b"></path><path d="M338.23,165.84s3.48.85,5-2.25" style="fill:none;stroke:#263238;stroke-linecap:round;stroke-linejoin:round;stroke-width:0.707962px"></path><path d="M351.19,139.91s-18.14-4.81-21.83,12a21.68,21.68,0,0,1,5.82-1.2A16.49,16.49,0,0,1,339,145.9a16.38,16.38,0,0,0-2.93,4.72,25,25,0,0,1,5.06.28,18,18,0,0,1,1.75-4.55,27.8,27.8,0,0,0-.71,4.74,24.57,24.57,0,0,1,5.15,1.66,20.64,20.64,0,0,1-.39-5.37,12.59,12.59,0,0,0,1.29,5.79c.54.27,1.08.56,1.63.88,0,0-2-5.8,1.32-8.94S351.19,139.91,351.19,139.91Z" style="fill:#263238"></path><path d="M364.36,198.93a.81.81,0,0,0,.29,1.2l8,4.39a1.06,1.06,0,0,0,1.35-.31l10.45-14.84a.91.91,0,0,0-.22-1.31l-8-4.39a1.16,1.16,0,0,0-1.4.42Z" style="fill:#263238"></path><path d="M375.76,184.47l-10.56,15a.7.7,0,0,0,.22,1.11l6.8,3.72c.45.25,1.43.45,1.72,0l10.59-15c.3-.42-.28-1.21-.74-1.45L377,184.09A1,1,0,0,0,375.76,184.47Z" style="fill:#fff;opacity:0.5"></path><path d="M380.44,209.44l-.3-9.38s2.05-3.72,2.17-4.79-2.9-5.3-3.86-5.45-5.27,7-5.07,8.4,2.15,3.88,2.15,3.88l-.94,1.29-1.6,8.72Z" style="fill:#e4897b"></path><polygon points="382.56 209.56 381.93 207.41 371.31 211.19 370.65 214.63 382.56 209.56" style="fill:#4B8E4B"></polygon><path d="M340.72,187.24s-4,16-1.7,43.32l-2.33,20h1.72l2.31-19.78s-2.69-27.1,1.45-43.52Z" style="fill:#fff;opacity:0.4;isolation:isolate"></path><path d="M336.47,174.77s5.07,3.5,7.95,4,13-3.56,13-3.56l-1.3,6.07.55,2.25s-9,6.06-15.06,5.26-6-7.91-6-7.91l1.07-1.12Z" style="fill:#4B8E4B"></path><path d="M336.47,174.77s5.07,3.5,7.95,4,13-3.56,13-3.56l-1.3,6.07.55,2.25s-9,6.06-15.06,5.26-6-7.91-6-7.91l1.07-1.12Z" style="fill:#fff;opacity:0.6000000000000001;isolation:isolate"></path></g></svg>