<svg width="24" height="24" viewBox="0 0 24 24" fill="none" xmlns="http://www.w3.org/2000/svg">
<path d="M20.61 10.83C19.84 9.91002 18.85 9.31002 17.7 9.05002C17.44 7.89002 16.99 6.89002 16.33 6.06002C16.31 6.03002 16.29 6.00002 16.27 5.98002C14.07 3.32002 10.47 3.33002 8.04001 4.71002C5.96001 5.90002 4.19001 8.41002 5.12001 11.99C2.99001 12.51 2.01001 14.37 2.01001 16.05C2.01001 17.93 3.24001 20.04 5.98001 20.24H16.32C16.33 20.24 16.35 20.24 16.36 20.24C17.78 20.24 19.14 19.71 20.19 18.75C22.7 16.53 22.37 12.91 20.61 10.83Z" fill="#292D32"/>
<path d="M21.76 8.74001C21.76 9.08001 21.72 9.41001 21.62 9.73001C20.89 8.88001 19.96 8.25001 18.93 7.86001C18.61 6.86001 18.1499 5.97001 17.5499 5.19001C17.5199 5.15001 17.49 5.11001 17.45 5.06001C17.64 5.02001 17.84 5.01001 18.03 5.01001C20.09 5.01001 21.76 6.68001 21.76 8.74001Z" fill="#292D32"/>
</svg>
